<svg xmlns="http://www.w3.org/2000/svg" viewBox="0 0 16 16">
  <defs>
    <style>.canvas{fill: none; opacity: 0}.light-defaultgrey-10{fill: #996f00; opacity: 0.1;}.light-defaultgrey{fill: #996f00; opacity: 1;}</style>
  </defs>
  <title>IconLightForeignKey</title>
  <g id="canvas">
    <path class="canvas" d="M16,16H0V0H16Z" />
  </g>
  <g id="level-1">
    <path class="light-defaultgrey-10" d="M4.5,10.5a3,3,0,1,1,2.816-4H7.5l1-1,1,1,1-1,1,1,1-1,2,2-1,1H7.316A2.99,2.99,0,0,1,4.5,10.5Z" />
    <path class="light-defaultgrey" d="M2.75,7.5a.75.75,0,1,1,.75.75A.75.75,0,0,1,2.75,7.5ZM4.5,4A3.5,3.5,0,1,0,7.649,9H13.5l.354-.146,1-1V7.146l-2-2h-.708l-.646.647-.646-.647h-.708L9.5,5.793l-.646-.647H8.146l-.622.623A3.491,3.491,0,0,0,4.5,4ZM6.882,6.782H7.925L8.5,6.207l.646.647h.708l.646-.647.646.647h.708l.646-.647L13.793,7.5l-.5.5H6.949a2.526,2.526,0,1,1-.067-1.218Z" />
  </g>
</svg>
