<svg xmlns="http://www.w3.org/2000/svg" viewBox="0 0 16 16">
  <defs>
    <style>.canvas{fill: none; opacity: 0;}.light-defaultgrey-10{fill: #212121; opacity: 0.1;}.light-defaultgrey{fill: #212121; opacity: 1;}</style>
  </defs>
  <title>KeyVault</title>
  <g id="canvas">
    <path class="canvas" d="M16,16H0V0H16Z" />
  </g>
  <g id="level-1">
    <path class="light-defaultgrey-10" d="M15,8.5A7.5,7.5,0,1,1,7.5,1,7.5,7.5,0,0,1,15,8.5Z" />
    <path class="light-defaultgrey" d="M15,8.5A7.5,7.5,0,1,1,3.14,2.41,4.341,4.341,0,0,0,3,3.5a1.615,1.615,0,0,0,.02.31A6.431,6.431,0,0,0,1,8.5,6.5,6.5,0,1,0,11.99,3.81c.01-.1.01-.21.01-.31a4.341,4.341,0,0,0-.14-1.09A7.463,7.463,0,0,1,15,8.5Z" />
    <path class="light-defaultgrey-10" d="M4.5,3.5a3,3,0,1,1,4,2.816V6.5l1,1-1,1,1,1-1,1,1,1-2,2-1-1V6.316A2.99,2.99,0,0,1,4.5,3.5Z" />
    <path class="light-defaultgrey" d="M8.25,2.5a.75.75,0,1,1-.75-.75A.75.75,0,0,1,8.25,2.5Zm.981,4.024.623.622v.708L9.207,8.5l.647.646v.708l-.647.646.647.646v.708l-2,2H7.146l-1-1L6,12.5V6.649a3.5,3.5,0,1,1,3.231-.125ZM10,3.5A2.5,2.5,0,1,0,7,5.949v6.344l.5.5L8.793,11.5l-.647-.646v-.708L8.793,9.5l-.647-.646V8.146L8.793,7.5l-.575-.575V5.882A2.494,2.494,0,0,0,10,3.5Z" />
  </g>
</svg>
