<?xml version="1.0" encoding="utf-8"?><!-- Uploaded to: SVG Repo, www.svgrepo.com, Generator: SVG Repo Mixer Tools -->
<svg width="800px" height="800px" viewBox="0 0 24 24" fill="none" xmlns="http://www.w3.org/2000/svg">
<path d="M14 16.75H6C5.27065 16.75 4.57118 16.4603 4.05546 15.9445C3.53973 15.4288 3.25 14.7293 3.25 14V6C3.25 5.27065 3.53973 4.57118 4.05546 4.05546C4.57118 3.53973 5.27065 3.25 6 3.25H14C14.7293 3.25 15.4288 3.53973 15.9445 4.05546C16.4603 4.57118 16.75 5.27065 16.75 6V14C16.75 14.7293 16.4603 15.4288 15.9445 15.9445C15.4288 16.4603 14.7293 16.75 14 16.75ZM6 4.75C5.66848 4.75 5.35054 4.8817 5.11612 5.11612C4.8817 5.35054 4.75 5.66848 4.75 6V14C4.75 14.3315 4.8817 14.6495 5.11612 14.8839C5.35054 15.1183 5.66848 15.25 6 15.25H14C14.3315 15.25 14.6495 15.1183 14.8839 14.8839C15.1183 14.6495 15.25 14.3315 15.25 14V6C15.25 5.66848 15.1183 5.35054 14.8839 5.11612C14.6495 4.8817 14.3315 4.75 14 4.75H6Z" fill="#000000"/>
<path d="M18 20.75H10C9.27065 20.75 8.57118 20.4603 8.05546 19.9445C7.53973 19.4288 7.25 18.7293 7.25 18V16H8.75V18C8.75 18.3315 8.8817 18.6495 9.11612 18.8839C9.35054 19.1183 9.66848 19.25 10 19.25H18C18.3315 19.25 18.6495 19.1183 18.8839 18.8839C19.1183 18.6495 19.25 18.3315 19.25 18V10C19.25 9.66848 19.1183 9.35054 18.8839 9.11612C18.6495 8.8817 18.3315 8.75 18 8.75H16V7.25H18C18.7293 7.25 19.4288 7.53973 19.9445 8.05546C20.4603 8.57118 20.75 9.27065 20.75 10V18C20.75 18.7293 20.4603 19.4288 19.9445 19.9445C19.4288 20.4603 18.7293 20.75 18 20.75Z" fill="#000000"/>
</svg>